HIERARCHY
ROOT hip
{
  OFFSET 0 0 0
  CHANNELS 6 Xposition Yposition Zposition Zrotation Yrotation Xrotation
  JOINT abdomen
  {
    OFFSET 0 20.6881 -0.73152
    CHANNELS 3 Zrotation Xrotation Yrotation
    JOINT chest
    {
      OFFSET 0 11.7043 -0.48768
      CHANNELS 3 Zrotation Xrotation Yrotation
      JOINT neck
      {
        OFFSET 0 22.1894 -2.19456
        CHANNELS 3 Zrotation Xrotation Yrotation
        JOINT head
        {
          OFFSET -0.24384 7.07133 1.2192
          CHANNELS 3 Zrotation Xrotation Yrotation
          JOINT leftEye
          {
            OFFSET 4.14528 8.04674 8.04672
            CHANNELS 3 Zrotation Xrotation Yrotation
            End Site
            {
              OFFSET 1 0 0
            }
          }
          JOINT rightEye
          {
            OFFSET -3.6576 8.04674 8.04672
            CHANNELS 3 Zrotation Xrotation Yrotation
            End Site
            {
              OFFSET 1 0 0
            }
          }
        }
      }
      JOINT rCollar
      {
        OFFSET -2.68224 19.2634 -4.8768
        CHANNELS 3 Zrotation Xrotation Yrotation
        JOINT rShldr
        {
          OFFSET -8.77824 -1.95073 1.46304
          CHANNELS 3 Zrotation Xrotation Yrotation
          JOINT rForeArm
          {
            OFFSET -28.1742 -1.7115 0.48768
            CHANNELS 3 Zrotation Xrotation Yrotation
            JOINT rHand
            {
              OFFSET -22.5879 0.773209 7.07136
              CHANNELS 3 Zrotation Xrotation Yrotation
              JOINT rThumb1
              {
                OFFSET -1.2192 -0.487915 3.41376
                CHANNELS 3 Zrotation Xrotation Yrotation
                JOINT rThumb2
                {
                  OFFSET -3.37035 -0.52449 3.41376
                  CHANNELS 3 Zrotation Xrotation Yrotation
                  End Site
                  {
                    OFFSET -1.78271 -1.18214 1.43049
                  }
                }
              }
              JOINT rIndex1
              {
                OFFSET -7.75947 0.938293 5.60832
                CHANNELS 3 Zrotation Xrotation Yrotation
                JOINT rIndex2
                {
                  OFFSET -2.54057 -0.884171 1.56538
                  CHANNELS 3 Zrotation Xrotation Yrotation
                  End Site
                  {
                    OFFSET -1.62519 -0.234802 1.16502
                  }
                }
              }
              JOINT rMid1
              {
                OFFSET -8.24714 1.18213 3.41376
                CHANNELS 3 Zrotation Xrotation Yrotation
                JOINT rMid2
                {
                  OFFSET -3.10165 -0.590103 1.0647
                  CHANNELS 3 Zrotation Xrotation Yrotation
                  End Site
                  {
                    OFFSET -2.48547 -0.328903 0.83742
                  }
                }
              }
              JOINT rRing1
              {
                OFFSET -8.82822 0.546677 1.51678
                CHANNELS 3 Zrotation Xrotation Yrotation
                JOINT rRing2
                {
                  OFFSET -2.60934 -0.819778 -0.0198488
                  CHANNELS 3 Zrotation Xrotation Yrotation
                  End Site
                  {
                    OFFSET -2.33842 -0.294052 0.168128
                  }
                }
              }
              JOINT rPinky1
              {
                OFFSET -8.27202 -0.0477905 -0.4584
                CHANNELS 3 Zrotation Xrotation Yrotation
                JOINT rPinky2
                {
                  OFFSET -1.82734 -0.647385 -0.700984
                  CHANNELS 3 Zrotation Xrotation Yrotation
                  End Site
                  {
                    OFFSET -1.69225 -0.51767 -0.607171
                  }
                }
              }
            }
          }
        }
      }
      JOINT lCollar
      {
        OFFSET 2.68224 19.2634 -4.8768
        CHANNELS 3 Zrotation Xrotation Yrotation
        JOINT lShldr
        {
          OFFSET 8.77824 -1.95073 1.46304
          CHANNELS 3 Zrotation Xrotation Yrotation
          JOINT lForeArm
          {
            OFFSET 28.1742 -1.7115 0.48768
            CHANNELS 3 Zrotation Xrotation Yrotation
            JOINT lHand
            {
              OFFSET 22.5879 0.773209 7.07136
              CHANNELS 3 Zrotation Xrotation Yrotation
              JOINT lThumb1
              {
                OFFSET 1.2192 -0.487915 3.41376
                CHANNELS 3 Zrotation Xrotation Yrotation
                JOINT lThumb2
                {
                  OFFSET 3.37035 -0.52449 3.41376
                  CHANNELS 3 Zrotation Xrotation Yrotation
                  End Site
                  {
                    OFFSET 1.78271 -1.18214 1.43049
                  }
                }
              }
              JOINT lIndex1
              {
                OFFSET 7.75947 0.938293 5.60832
                CHANNELS 3 Zrotation Xrotation Yrotation
                JOINT lIndex2
                {
                  OFFSET 2.54057 -0.884171 1.56538
                  CHANNELS 3 Zrotation Xrotation Yrotation
                  End Site
                  {
                    OFFSET 1.62519 -0.234802 1.16502
                  }
                }
              }
              JOINT lMid1
              {
                OFFSET 8.24714 1.18213 3.41376
                CHANNELS 3 Zrotation Xrotation Yrotation
                JOINT lMid2
                {
                  OFFSET 3.10165 -0.590103 1.0647
                  CHANNELS 3 Zrotation Xrotation Yrotation
                  End Site
                  {
                    OFFSET 2.48547 -0.328903 0.83742
                  }
                }
              }
              JOINT lRing1
              {
                OFFSET 8.82822 0.546677 1.51678
                CHANNELS 3 Zrotation Xrotation Yrotation
                JOINT lRing2
                {
                  OFFSET 2.60934 -0.819778 -0.0198488
                  CHANNELS 3 Zrotation Xrotation Yrotation
                  End Site
                  {
                    OFFSET 2.33842 -0.294052 0.168128
                  }
                }
              }
              JOINT lPinky1
              {
                OFFSET 8.27202 -0.0477905 -0.4584
                CHANNELS 3 Zrotation Xrotation Yrotation
                JOINT lPinky2
                {
                  OFFSET 1.82734 -0.647385 -0.700984
                  CHANNELS 3 Zrotation Xrotation Yrotation
                  End Site
                  {
                    OFFSET 1.69225 -0.51767 -0.607171
                  }
                }
              }
            }
          }
        }
      }
    }
  }
  JOINT rButtock
  {
    OFFSET -8.77824 4.35084 1.2192
    CHANNELS 3 Zrotation Xrotation Yrotation
    JOINT rThigh
    {
      OFFSET 0 -1.70687 -2.19456
      CHANNELS 3 Zrotation Xrotation Yrotation
      JOINT rShin
      {
        OFFSET 0 -36.8199 0.73152
        CHANNELS 3 Zrotation Xrotation Yrotation
        JOINT rFoot
        {
          OFFSET 0.73152 -45.1104 -5.12064
          CHANNELS 3 Zrotation Xrotation Yrotation
          End Site
          {
            OFFSET -1.1221 -3.69964 12.103
          }
        }
      }
    }
  }
  JOINT lButtock
  {
    OFFSET 8.77824 4.35084 1.2192
    CHANNELS 3 Zrotation Xrotation Yrotation
    JOINT lThigh
    {
      OFFSET 0 -1.70687 -2.19456
      CHANNELS 3 Zrotation Xrotation Yrotation
      JOINT lShin
      {
        OFFSET 0 -36.8199 0.73152
        CHANNELS 3 Zrotation Xrotation Yrotation
        JOINT lFoot
        {
          OFFSET -0.73152 -45.1104 -5.12064
          CHANNELS 3 Zrotation Xrotation Yrotation
          End Site
          {
            OFFSET 1.1221 -3.69964 12.103
          }
        }
      }
    }
  }
}
MOTION
Frames:	9
Frame Time:	0.00833333
118.536 84.7061 0.938871 180.255 -86.1901 -179.603 -5.29217 10.9618 5.53258 -0.554037 1.28951 1.36138 7.00298 13.8485 3.37658 -5.62305 -42.1042 4.29643 -0.0 0.0 0.0 -0.0 0.0 0.0 8.15352e-15 2.62475e-12 1.3759e-13 54.9835 61.0105 18.5873 -25.6765 -22.6317 55.4576 -2.21204 -38.2792 -6.3678 -5.92497e-11 2.32916e-10 4.29587e-10 -1.15086e-10 4.00493e-10 7.37104e-10 -5.92398e-11 2.32921e-10 4.29581e-10 7.73091 5.47488 0.417314 -5.92481e-11 2.32916e-10 4.29584e-10 2.90554 0.965183 0.102902 -5.92426e-11 2.32915e-10 4.29587e-10 10.2786 0.731801 0.0259123 -5.92543e-11 2.32917e-10 4.29592e-10 2.22167 -0.733487 -0.20892 8.14739e-15 2.62474e-12 1.37351e-13 -64.4253 45.8051 -12.625 18.5075 -11.2454 -35.1617 0.000474309 -0.269032 0.0378064 -1.29959e-09 -4.5472e-11 -2.58816e-10 -2.24721e-09 -7.87973e-11 -4.46623e-10 -1.29959e-09 -4.5476e-11 -2.58811e-10 -7.73091 5.47488 -0.417314 -1.29959e-09 -4.54737e-11 -2.58818e-10 -2.90554 0.965183 -0.102902 -1.2996e-09 -4.5474e-11 -2.58816e-10 -10.2786 0.731801 -0.0259123 -1.29959e-09 -4.54718e-11 -2.58827e-10 -2.22167 -0.733487 0.20892 -2.03217e-16 0.0 -3.88251e-19 -0.945576 -11.0098 11.7155 -0.0590465 25.5781 0.699186 -13.3071 -18.5085 -30.8322 2.03217e-16 0.0 3.88251e-19 1.87361 -11.9906 -17.1335 0.10627 24.7302 -0.571056 9.14447 -13.7881 25.6512
118.53 84.7049 0.805795 181.298 -86.1437 -180.703 -5.17577 11.012 5.51828 -0.634236 1.29102 1.36057 7.03143 13.8221 3.39051 -5.57642 -42.1189 4.33632 -0.0 0.0 0.0 -0.0 0.0 0.0 -2.00525e-14 2.49046e-12 1.38132e-13 54.7724 61.0775 18.9644 -25.819 -22.9792 56.0263 -2.22362 -38.3604 -6.38647 -7.75527e-10 -7.34759e-11 -4.41427e-10 -1.32122e-09 -1.49412e-10 -7.87652e-10 -7.75521e-10 -7.34751e-11 -4.41433e-10 7.73091 5.47488 0.417314 -7.75527e-10 -7.34775e-11 -4.41432e-10 2.90554 0.965183 0.102902 -7.7552e-10 -7.34777e-11 -4.41428e-10 10.2786 0.731801 0.0259123 -7.75532e-10 -7.34757e-11 -4.41421e-10 2.22167 -0.733487 -0.20892 -2.01282e-14 2.49047e-12 1.37899e-13 -64.3167 46.397 -12.5972 18.9577 -11.7562 -36.2027 0.000336229 -0.317668 0.0446442 -1.0154e-09 -4.94052e-11 1.57588e-11 -1.75855e-09 -8.56547e-11 2.84365e-11 -1.0154e-09 -4.94085e-11 1.57664e-11 -7.73091 5.47488 -0.417314 -1.0154e-09 -4.94067e-11 1.57582e-11 -2.90554 0.965183 -0.102902 -1.0154e-09 -4.94078e-11 1.57598e-11 -10.2786 0.731801 -0.0259123 -1.01539e-09 -4.94059e-11 1.57505e-11 -2.22167 -0.733487 0.20892 -2.03217e-16 0.0 -3.88251e-19 -0.753239 -10.9857 11.778 -0.0592704 25.6172 0.700585 -13.344 -18.5161 -30.9002 2.03217e-16 0.0 3.88251e-19 2.03145 -11.9562 -17.1047 0.10545 24.7692 -0.572263 9.1593 -13.7843 25.6886
118.519 84.6969 0.688572 181.956 -86.1009 -181.434 -5.08482 11.0813 5.51406 -0.690383 1.28604 1.36109 7.04933 13.7945 3.40615 -5.53881 -42.1338 4.37669 -0.0 0.0 0.0 -0.0 0.0 0.0 -3.73084e-14 2.16046e-12 1.25731e-13 54.5746 61.1246 19.299 -25.9576 -23.3266 56.5911 -2.24096 -38.4821 -6.41445 -1.13086e-09 -2.51385e-10 -9.30335e-10 -1.91778e-09 -4.66921e-10 -1.64183e-09 -1.13086e-09 -2.51387e-10 -9.30341e-10 7.73091 5.47488 0.417314 -1.13086e-09 -2.51387e-10 -9.30341e-10 2.90554 0.965183 0.102902 -1.13086e-09 -2.51387e-10 -9.30337e-10 10.2786 0.731801 0.0259123 -1.13087e-09 -2.51386e-10 -9.30328e-10 2.22167 -0.733487 -0.20892 -3.74372e-14 2.16047e-12 1.25483e-13 -64.194 46.9387 -12.6492 19.3884 -12.2615 -37.2151 9.24787e-05 -0.274601 0.038593 -7.56772e-10 -4.84876e-11 1.93177e-10 -1.31285e-09 -8.41002e-11 3.35408e-10 -7.56775e-10 -4.84899e-11 1.93187e-10 -7.73091 5.47488 -0.417314 -7.56772e-10 -4.84887e-11 1.93177e-10 -2.90554 0.965183 -0.102902 -7.56778e-10 -4.84903e-11 1.93179e-10 -10.2786 0.731801 -0.0259123 -7.56768e-10 -4.84887e-11 1.93171e-10 -2.22167 -0.733487 0.20892 -2.03217e-16 0.0 -3.88251e-19 -0.600751 -10.9652 11.8094 -0.0598185 25.6679 0.701444 -13.3551 -18.4847 -30.9538 2.03217e-16 0.0 3.88251e-19 2.1617 -11.899 -17.0775 0.105117 24.7928 -0.573002 9.16806 -13.7863 25.7077
118.506 84.6922 0.587308 182.18 -86.0572 -181.747 -5.02328 11.1848 5.52691 -0.712967 1.26614 1.36441 7.0499 13.7612 3.42214 -5.5117 -42.1394 4.41437 -0.0 0.0 0.0 -0.0 0.0 0.0 -3.99182e-14 1.47537e-12 9.14208e-14 54.4013 61.1532 19.5652 -26.0947 -23.68 57.158 -2.26606 -38.6567 -6.45479 -9.3374e-10 -2.50537e-10 -8.60345e-10 -1.58061e-09 -4.59768e-10 -1.51434e-09 -9.33736e-10 -2.50542e-10 -8.60354e-10 7.73091 5.47488 0.417314 -9.33742e-10 -2.50541e-10 -8.60352e-10 2.90554 0.965183 0.102902 -9.33737e-10 -2.50541e-10 -8.60348e-10 10.2786 0.731801 0.0259123 -9.33748e-10 -2.5054e-10 -8.60337e-10 2.22167 -0.733487 -0.20892 -4.00829e-14 1.47538e-12 9.1116e-14 -64.0716 47.412 -12.7866 19.7959 -12.7562 -38.1883 -0.000168154 -0.0980682 0.0137827 -4.80708e-10 -2.78243e-11 2.18989e-10 -8.35063e-10 -4.83244e-11 3.80005e-10 -4.8071e-10 -2.78252e-11 2.18999e-10 -7.73091 5.47488 -0.417314 -4.80707e-10 -2.78249e-11 2.18989e-10 -2.90554 0.965183 -0.102902 -4.80714e-10 -2.78264e-11 2.18991e-10 -10.2786 0.731801 -0.0259123 -4.80704e-10 -2.78255e-11 2.18984e-10 -2.22167 -0.733487 0.20892 -2.03217e-16 0.0 -3.88251e-19 -0.492553 -10.9459 11.8017 -0.060814 25.733 0.701196 -13.3243 -18.3783 -30.9985 2.03217e-16 0.0 3.88251e-19 2.26369 -11.8028 -17.0512 0.105582 24.797 -0.57314 9.16843 -13.7971 25.7002
118.491 84.6889 0.495452 182.316 -86.0111 -181.978 -4.96384 11.3168 5.5516 -0.719337 1.23297 1.37026 7.03949 13.7185 3.43796 -5.49542 -42.1302 4.44777 -0.0 0.0 0.0 -0.0 0.0 0.0 -3.4642e-14 5.14283e-13 4.11298e-14 54.2838 61.1545 19.7449 -26.2307 -24.0413 57.737 -2.29796 -38.8757 -6.50574 -3.98223e-10 -1.4503e-10 -4.57452e-10 -6.71186e-10 -2.62072e-10 -8.01789e-10 -3.98217e-10 -1.45036e-10 -4.57465e-10 7.73091 5.47488 0.417314 -3.98224e-10 -1.45034e-10 -4.57459e-10 2.90554 0.965183 0.102902 -3.98222e-10 -1.45035e-10 -4.57456e-10 10.2786 0.731801 0.0259123 -3.98232e-10 -1.45034e-10 -4.57443e-10 2.22167 -0.733487 -0.20892 -3.48356e-14 5.14299e-13 4.07415e-14 -63.9192 47.8497 -13.0187 20.1865 -13.2469 -39.1385 -0.000220432 0.198642 -0.0279171 -1.70496e-10 7.43455e-12 1.6014e-10 -2.97069e-10 1.27425e-11 2.7812e-10 -1.70497e-10 7.43576e-12 1.60151e-10 -7.73091 5.47488 -0.417314 -1.70495e-10 7.43491e-12 1.6014e-10 -2.90554 0.965183 -0.102902 -1.70503e-10 7.43372e-12 1.60142e-10 -10.2786 0.731801 -0.0259123 -1.70492e-10 7.43365e-12 1.60137e-10 -2.22167 -0.733487 0.20892 -2.03217e-16 0.0 -3.88251e-19 -0.404444 -10.9223 11.7781 -0.0620689 25.808 0.700353 -13.2718 -18.2211 -31.0518 2.03217e-16 0.0 3.88251e-19 2.35536 -11.6811 -17.0143 0.106628 24.7928 -0.572807 9.15767 -13.8107 25.6636
118.476 84.6863 0.411148 182.507 -85.9621 -182.261 -4.91827 11.4473 5.57642 -0.717878 1.2043 1.37553 7.02863 13.6795 3.45712 -5.4864 -42.1311 4.48518 -0.0 0.0 0.0 -0.0 0.0 0.0 -2.47253e-14 -4.2354e-13 -9.41276e-15 54.1766 61.1333 19.9072 -26.3601 -24.3958 58.3081 -2.33361 -39.1171 -6.56233 2.05337e-10 7.59368e-12 5.0061e-11 3.52227e-10 1.91548e-11 9.33028e-11 2.05344e-10 7.58804e-12 5.00444e-11 7.73091 5.47488 0.417314 2.05336e-10 7.58991e-12 5.00543e-11 2.90554 0.965183 0.102902 2.05336e-10 7.58775e-12 5.00567e-11 10.2786 0.731801 0.0259123 2.05326e-10 7.58801e-12 5.00711e-11 2.22167 -0.733487 -0.20892 -2.49353e-14 -4.23522e-13 -9.87673e-15 -63.7152 48.266 -13.3333 20.567 -13.7413 -40.0785 0.000181347 0.531524 -0.0747027 6.45647e-11 2.76382e-11 8.8934e-11 1.11181e-10 4.77267e-11 1.54977e-10 6.45642e-11 2.76413e-11 8.89464e-11 -7.73091 5.47488 -0.417314 6.45651e-11 2.76393e-11 8.89341e-11 -2.90554 0.965183 -0.102902 6.45579e-11 2.76386e-11 8.8937e-11 -10.2786 0.731801 -0.0259123 6.45681e-11 2.76377e-11 8.89335e-11 -2.22167 -0.733487 0.20892 -2.03217e-16 0.0 -3.88251e-19 -0.344458 -10.904 11.7392 -0.0634418 25.89 0.699805 -13.218 -18.0762 -31.0882 2.03217e-16 0.0 3.88251e-19 2.42461 -11.5603 -16.9772 0.107717 24.7815 -0.572202 9.14304 -13.8246 25.6184
118.466 84.6825 0.337007 182.614 -85.9182 -182.44 -4.89817 11.5462 5.58961 -0.716988 1.1979 1.37713 7.02782 13.6575 3.4831 -5.48097 -42.1673 4.53492 -0.0 0.0 0.0 -0.0 0.0 0.0 -1.34139e-14 -1.03883e-12 -4.44781e-14 54.0341 61.0941 20.1214 -26.4787 -24.7303 58.8506 -2.36976 -39.3593 -6.61946 6.06583e-10 1.49791e-10 4.3391e-10 1.03138e-09 2.76899e-10 7.68418e-10 6.06591e-10 1.49786e-10 4.33891e-10 7.73091 5.47488 0.417314 6.06582e-10 1.49788e-10 4.33904e-10 2.90554 0.965183 0.102902 6.06581e-10 1.49785e-10 4.33906e-10 10.2786 0.731801 0.0259123 6.06571e-10 1.49785e-10 4.3392e-10 2.22167 -0.733487 -0.20892 -1.36218e-14 -1.03882e-12 -4.4975e-14 -63.4383 48.6752 -13.7176 20.943 -14.2459 -41.0213 0.000817864 0.816574 -0.11477 1.15176e-10 3.13603e-12 7.76755e-11 1.99736e-10 5.25428e-12 1.358e-10 1.15176e-10 3.14e-12 7.76882e-11 -7.73091 5.47488 -0.417314 1.15176e-10 3.13712e-12 7.76755e-11 -2.90554 0.965183 -0.102902 1.15169e-10 3.13692e-12 7.76787e-11 -10.2786 0.731801 -0.0259123 1.1518e-10 3.13563e-12 7.76755e-11 -2.22167 -0.733487 0.20892 -2.03217e-16 0.0 -3.88251e-19 -0.320658 -10.9005 11.6857 -0.0647971 25.976 0.700442 -13.1836 -18.0063 -31.082 2.03217e-16 0.0 3.88251e-19 2.45951 -11.4672 -16.9502 0.108309 24.7646 -0.571523 9.13181 -13.8362 25.5845
118.461 84.6769 0.278403 182.487 -85.8944 -182.361 -4.91366 11.597 5.58667 -0.718606 1.22603 1.37376 7.0387 13.6496 3.51862 -5.46523 -42.2362 4.60783 -0.0 0.0 0.0 -0.0 0.0 0.0 1.85694e-15 -1.23941e-12 -6.04686e-14 53.8493 61.0277 20.4058 -26.5853 -25.0398 59.3513 -2.40444 -39.5887 -6.67397 7.27072e-10 3.03792e-10 6.75986e-10 1.23194e-09 5.47815e-10 1.18968e-09 7.27081e-10 3.03788e-10 6.75967e-10 7.73091 5.47488 0.417314 7.27071e-10 3.0379e-10 6.7598e-10 2.90554 0.965183 0.102902 7.27072e-10 3.03787e-10 6.75981e-10 10.2786 0.731801 0.0259123 7.27061e-10 3.03787e-10 6.75992e-10 2.22167 -0.733487 -0.20892 1.68393e-15 -1.23939e-12 -6.09337e-14 -63.077 49.0863 -14.1791 21.3152 -14.7619 -41.974 0.0013888 1.05898 -0.148847 -1.45129e-10 -9.91982e-11 1.65329e-10 -2.50442e-10 -1.72059e-10 2.88231e-10 -1.4513e-10 -9.9195e-11 1.65341e-10 -7.73091 5.47488 -0.417314 -1.4513e-10 -9.91982e-11 1.65329e-10 -2.90554 0.965183 -0.102902 -1.45136e-10 -9.91979e-11 1.65331e-10 -10.2786 0.731801 -0.0259123 -1.45125e-10 -9.91988e-11 1.65327e-10 -2.22167 -0.733487 0.20892 -2.03217e-16 0.0 -3.88251e-19 -0.346173 -10.9115 11.6137 -0.0660831 26.0658 0.703022 -13.1841 -18.0643 -31.007 2.03217e-16 0.0 3.88251e-19 2.44493 -11.4075 -16.9494 0.108149 24.7372 -0.5709 9.13156 -13.8504 25.5765
118.462 84.669 0.239505 181.882 -85.896 -181.778 -4.95614 11.6183 5.5743 -0.718346 1.27671 1.36723 7.05602 13.6509 3.56121 -5.44518 -42.3275 4.69679 -0.0 0.0 0.0 -0.0 0.0 0.0 2.16749e-14 -1.18901e-12 -6.55741e-14 53.6464 60.9349 20.7221 -26.6839 -25.3345 59.823 -2.43981 -39.8195 -6.72923 7.13109e-10 4.8776e-10 8.83784e-10 1.20235e-09 8.67245e-10 1.54728e-09 7.13119e-10 4.87759e-10 8.83766e-10 7.73091 5.47488 0.417314 7.13109e-10 4.8776e-10 8.83779e-10 2.90554 0.965183 0.102902 7.13112e-10 4.87758e-10 8.83779e-10 10.2786 0.731801 0.0259123 7.131e-10 4.87758e-10 8.83785e-10 2.22167 -0.733487 -0.20892 2.15621e-14 -1.18899e-12 -6.59654e-14 -62.6404 49.4881 -14.7241 21.6795 -15.2841 -42.9296 0.00202623 1.29436 -0.181939 -6.25617e-10 -2.55144e-10 3.0677e-10 -1.08192e-09 -4.42252e-10 5.34067e-10 -6.2562e-10 -2.55143e-10 3.06781e-10 -7.73091 5.47488 -0.417314 -6.2562e-10 -2.55146e-10 3.0677e-10 -2.90554 0.965183 -0.102902 -6.25625e-10 -2.55145e-10 3.06772e-10 -10.2786 0.731801 -0.0259123 -6.25614e-10 -2.55145e-10 3.06765e-10 -2.22167 -0.733487 0.20892 -2.03217e-16 0.0 -3.88251e-19 -0.413107 -10.9328 11.5242 -0.0673888 26.1607 0.706903 -13.2049 -18.2049 -30.8832 2.03217e-16 0.0 3.88251e-19 2.39133 -11.3675 -16.9646 0.107562 24.7005 -0.570203 9.13654 -13.8666 25.5805
